# xmcd
# Track frame offsets:
# 150
# 15088
# 29079
# 42478
# 57685
#
# Disc length: 1000 seconds
# Revision: 1
# Processed by: cddbd v1.5.2PL0 Copyright (c) Steve Scherf et al.
# Submitted via: VisiTrax 2.11.2.271 - For more info visit www.synapsa.com
#
DISCID=3e03e605
DTITLE=Stephanie Jansen - Risky
DYEAR=2012
DGENRE=Country
TTITLE0=Risky
TTITLE1=The Life You Made
TTITLE2=Shoes
TTITLE3=Running From The Blues
TTITLE4=Boxes
EXTD=
EXTT0=
EXTT1=
EXTT2=
EXTT3=
EXTT4=
PLAYORDER=
